<svg width="318" height="29" viewBox="0 0 318 29" fill="none" xmlns="http://www.w3.org/2000/svg">
<path d="M23.8419 11.6616C23.8419 11.3909 23.7343 11.1313 23.5429 10.9399C23.3515 10.7484 23.0919 10.6409 22.8212 10.6409C22.5505 10.6409 22.2908 10.7484 22.0994 10.9399C21.908 11.1313 21.8005 11.3909 21.8005 11.6616H23.8419ZM4.78874 11.6616C4.78874 11.3909 4.6812 11.1313 4.48978 10.9399C4.29837 10.7484 4.03875 10.6409 3.76804 10.6409C3.49733 10.6409 3.23771 10.7484 3.04629 10.9399C2.85487 11.1313 2.74734 11.3909 2.74734 11.6616H4.78874ZM24.8217 15.1048C24.9152 15.2051 25.0279 15.2855 25.1531 15.3413C25.2783 15.3971 25.4134 15.4271 25.5505 15.4295C25.6875 15.4319 25.8237 15.4067 25.9508 15.3554C26.0779 15.304 26.1933 15.2276 26.2902 15.1307C26.3872 15.0338 26.4636 14.9183 26.5149 14.7912C26.5662 14.6641 26.5915 14.528 26.589 14.3909C26.5866 14.2539 26.5566 14.1187 26.5008 13.9935C26.445 13.8683 26.3646 13.7556 26.2643 13.6622L24.8217 15.1048ZM13.2946 2.13504L14.0159 1.41374C13.8245 1.2226 13.5651 1.11523 13.2946 1.11523C13.0241 1.11523 12.7647 1.2226 12.5733 1.41374L13.2946 2.13504ZM0.324867 13.6622C0.224584 13.7556 0.14415 13.8683 0.0883622 13.9935C0.0325747 14.1187 0.00257694 14.2539 0.00015885 14.3909C-0.00225924 14.528 0.0229516 14.6641 0.0742876 14.7912C0.125623 14.9183 0.202033 15.0338 0.298957 15.1307C0.395881 15.2276 0.511335 15.304 0.63843 15.3554C0.765526 15.4067 0.901659 15.4319 1.03871 15.4295C1.17576 15.4271 1.31092 15.3971 1.43612 15.3413C1.56133 15.2855 1.67402 15.2051 1.76746 15.1048L0.324867 13.6622ZM6.48991 27.6526H20.0993V25.6112H6.48991V27.6526ZM23.8419 23.91V11.6616H21.8005V23.91H23.8419ZM4.78874 23.91V11.6616H2.74734V23.91H4.78874ZM26.2643 13.6622L14.0159 1.41374L12.5733 2.85634L24.8217 15.1048L26.2643 13.6622ZM12.5733 1.41374L0.324867 13.6622L1.76746 15.1048L14.0159 2.85634L12.5733 1.41374ZM20.0993 27.6526C21.0919 27.6526 22.0438 27.2583 22.7457 26.5564C23.4476 25.8546 23.8419 24.9026 23.8419 23.91H21.8005C21.8005 24.8491 21.0383 25.6112 20.0993 25.6112V27.6526ZM6.48991 25.6112C5.55087 25.6112 4.78874 24.8491 4.78874 23.91H2.74734C2.74734 24.9026 3.14164 25.8546 3.84351 26.5564C4.54538 27.2583 5.49732 27.6526 6.48991 27.6526V25.6112Z" fill="#7F7F7F"/>
<path d="M295.225 22.5492C295.225 21.1054 295.798 19.7208 296.819 18.6999C297.84 17.679 299.225 17.1055 300.669 17.1055H311.556C313 17.1055 314.385 17.679 315.405 18.6999C316.426 19.7208 317 21.1054 317 22.5492C317 23.2711 316.713 23.9634 316.203 24.4739C315.692 24.9843 315 25.2711 314.278 25.2711H297.947C297.225 25.2711 296.533 24.9843 296.022 24.4739C295.512 23.9634 295.225 23.2711 295.225 22.5492Z" stroke="#7F7F7F" stroke-width="2" stroke-linejoin="round"/>
<path d="M306.112 11.6615C308.367 11.6615 310.195 9.83354 310.195 7.57866C310.195 5.32379 308.367 3.49585 306.112 3.49585C303.857 3.49585 302.029 5.32379 302.029 7.57866C302.029 9.83354 303.857 11.6615 306.112 11.6615Z" stroke="#7F7F7F" stroke-width="2"/>
<path fill-rule="evenodd" clip-rule="evenodd" d="M231.678 4.14012C232.041 2.35729 233.628 1.0957 235.445 1.0957H239.892C241.709 1.0957 243.295 2.35729 243.659 4.14012C243.699 4.33644 243.805 4.51352 243.958 4.64287C244.111 4.77223 244.303 4.84633 244.503 4.85325H244.548C246.457 4.93763 247.924 5.17171 249.149 5.97602C249.921 6.48229 250.585 7.13282 251.102 7.89358C251.746 8.83808 252.029 9.9241 252.165 11.236C252.298 12.5194 252.298 14.1267 252.298 16.1626V16.2783C252.298 18.3143 252.298 19.9229 252.165 21.2049C252.029 22.5169 251.746 23.6029 251.102 24.5487C250.583 25.3099 249.92 25.9615 249.149 26.4663C248.193 27.0937 247.094 27.3713 245.763 27.5033C244.459 27.634 242.825 27.634 240.748 27.634H234.589C232.512 27.634 230.877 27.634 229.574 27.5033C228.243 27.3713 227.144 27.095 226.188 26.4663C225.417 25.9611 224.753 25.3091 224.235 24.5474C223.591 23.6029 223.308 22.5169 223.172 21.2049C223.038 19.9229 223.038 18.3143 223.038 16.2783V16.1626C223.038 14.1267 223.038 12.5194 223.172 11.236C223.308 9.9241 223.591 8.83808 224.235 7.89358C224.753 7.13189 225.417 6.47984 226.188 5.97466C227.412 5.17171 228.879 4.93763 230.789 4.85461L230.812 4.85325H230.834C231.034 4.84633 231.226 4.77223 231.379 4.64287C231.532 4.51352 231.637 4.33644 231.678 4.14012ZM235.445 3.13711C234.574 3.13711 233.843 3.74 233.678 4.54704C233.413 5.85354 232.253 6.88241 230.858 6.89466C229.024 6.97631 228.041 7.20087 227.306 7.68264C226.76 8.04087 226.29 8.5028 225.922 9.04222C225.547 9.5934 225.321 10.2997 225.201 11.447C225.081 12.612 225.08 14.1144 225.08 16.2212C225.08 18.3279 225.08 19.829 225.202 20.994C225.321 22.1412 225.547 22.8476 225.924 23.4001C226.288 23.9363 226.758 24.399 227.308 24.7597C227.875 25.1312 228.602 25.3558 229.776 25.4728C230.966 25.5912 232.498 25.5926 234.644 25.5926H240.692C242.837 25.5926 244.37 25.5926 245.56 25.4728C246.735 25.3558 247.462 25.1326 248.029 24.7597C248.579 24.399 249.05 23.9363 249.415 23.3987C249.79 22.8476 250.016 22.1412 250.136 20.994C250.256 19.829 250.257 18.3265 250.257 16.2212C250.257 14.1144 250.257 12.612 250.135 11.447C250.016 10.2997 249.79 9.5934 249.413 9.04222C249.046 8.50208 248.575 8.03963 248.029 7.68128C247.297 7.20087 246.314 6.97631 244.477 6.89466C243.084 6.88105 241.924 5.8549 241.659 4.54704C241.572 4.14457 241.348 3.78449 241.026 3.52762C240.705 3.27074 240.304 3.13281 239.892 3.13711H235.445ZM237.668 12.6637C236.856 12.6637 236.077 12.9863 235.503 13.5605C234.929 14.1348 234.606 14.9137 234.606 15.7258C234.606 16.5379 234.929 17.3168 235.503 17.891C236.077 18.4653 236.856 18.7879 237.668 18.7879C238.481 18.7879 239.259 18.4653 239.834 17.891C240.408 17.3168 240.731 16.5379 240.731 15.7258C240.731 14.9137 240.408 14.1348 239.834 13.5605C239.259 12.9863 238.481 12.6637 237.668 12.6637ZM232.565 15.7258C232.565 14.3722 233.103 13.0741 234.06 12.117C235.017 11.16 236.315 10.6223 237.668 10.6223C239.022 10.6223 240.32 11.16 241.277 12.117C242.234 13.0741 242.772 14.3722 242.772 15.7258C242.772 17.0793 242.234 18.3774 241.277 19.3345C240.32 20.2916 239.022 20.8293 237.668 20.8293C236.315 20.8293 235.017 20.2916 234.06 19.3345C233.103 18.3774 232.565 17.0793 232.565 15.7258ZM244.813 11.643C244.813 11.3723 244.921 11.1126 245.112 10.9212C245.304 10.7298 245.563 10.6223 245.834 10.6223H247.195C247.466 10.6223 247.725 10.7298 247.917 10.9212C248.108 11.1126 248.216 11.3723 248.216 11.643C248.216 11.9137 248.108 12.1733 247.917 12.3647C247.725 12.5561 247.466 12.6637 247.195 12.6637H245.834C245.563 12.6637 245.304 12.5561 245.112 12.3647C244.921 12.1733 244.813 11.9137 244.813 11.643Z" fill="#7F7F7F"/>
<path d="M92.0017 12.6637V14.7051C92.0017 21.1205 92.0017 24.3283 90.0079 26.3207C88.0169 28.3145 84.8078 28.3145 78.3923 28.3145C71.9768 28.3145 68.7691 28.3145 66.7753 26.3207C64.7829 24.3296 64.7829 21.1205 64.7829 14.7051C64.7829 8.28962 64.7829 5.08189 66.7753 3.08812C68.7705 1.0957 71.9768 1.0957 78.3923 1.0957H80.4337" stroke="#829DFF" stroke-width="1.38821" stroke-linecap="round"/>
<path d="M71.5877 17.4262L74.0333 14.492C75.0023 13.3284 75.4868 12.7473 76.1237 12.7473C76.762 12.7473 77.2465 13.3284 78.2155 14.492L78.5693 14.9166C79.5383 16.0802 80.0228 16.6613 80.6611 16.6613C81.298 16.6613 81.7825 16.0802 82.7515 14.9166L85.1971 11.9824" stroke="#829DFF" stroke-width="1.38821" stroke-linecap="round"/>
<path d="M87.919 9.26108C90.1739 9.26108 92.0018 7.43315 92.0018 5.17827C92.0018 2.9234 90.1739 1.09546 87.919 1.09546C85.6641 1.09546 83.8362 2.9234 83.8362 5.17827C83.8362 7.43315 85.6641 9.26108 87.919 9.26108Z" stroke="#829DFF" stroke-width="1.38821"/>
</svg>
